<?xml version="1.0" encoding="utf-8"?>
<!-- Generator: Adobe Illustrator 23.0.3, SVG Export Plug-In . SVG Version: 6.00 Build 0)  -->
<svg version="1.1" id="Capa_1" xmlns="http://www.w3.org/2000/svg" xmlns:xlink="http://www.w3.org/1999/xlink" x="0px" y="0px"
	 viewBox="0 0 195.93 27.38" style="enable-background:new 0 0 195.93 27.38;" xml:space="preserve">
<style type="text/css">
	.st0{fill:#222021;}
</style>
<g>
	<path class="st0" d="M0,0.79h5.32v10.66l10-10.66h6.99L11.68,11.43l11.16,15.23H15.9L7.92,15.37l-2.6,2.64v8.65H0V0.79z"/>
	<path class="st0" d="M51.19,24.37c-1.96,2.01-4.78,3.02-8.48,3.02c-3.7,0-6.52-1.01-8.48-3.02c-2.62-2.47-3.93-6.03-3.93-10.67
		c0-4.74,1.31-8.3,3.93-10.67C36.19,1.01,39.02,0,42.71,0c3.7,0,6.52,1.01,8.48,3.02c2.61,2.38,3.91,5.93,3.91,10.67
		C55.11,18.34,53.8,21.9,51.19,24.37z M47.81,20.43c1.26-1.58,1.89-3.83,1.89-6.74c0-2.9-0.63-5.15-1.89-6.73
		c-1.26-1.59-2.96-2.38-5.1-2.38c-2.14,0-3.85,0.79-5.13,2.37c-1.28,1.58-1.91,3.83-1.91,6.74c0,2.91,0.64,5.16,1.91,6.74
		c1.28,1.58,2.98,2.37,5.13,2.37C44.86,22.8,46.55,22.01,47.81,20.43z"/>
	<path class="st0" d="M68.52,18.68c0.17,1.18,0.5,2.07,0.99,2.65c0.9,1.06,2.43,1.6,4.61,1.6c1.3,0,2.36-0.14,3.17-0.42
		c1.54-0.54,2.31-1.54,2.31-3c0-0.85-0.38-1.52-1.13-1.98c-0.76-0.46-1.95-0.86-3.59-1.21l-2.8-0.61c-2.75-0.61-4.65-1.27-5.67-1.98
		c-1.74-1.19-2.62-3.06-2.62-5.6c0-2.32,0.85-4.24,2.56-5.78c1.71-1.53,4.21-2.3,7.52-2.3c2.76,0,5.11,0.72,7.06,2.17
		c1.95,1.45,2.97,3.54,3.07,6.29h-5.2C78.69,6.94,78,5.83,76.7,5.18c-0.86-0.43-1.94-0.65-3.22-0.65c-1.43,0-2.57,0.28-3.42,0.84
		c-0.85,0.56-1.28,1.35-1.28,2.35c0,0.92,0.42,1.61,1.26,2.07c0.54,0.3,1.68,0.66,3.44,1.07l4.54,1.07
		c1.99,0.47,3.48,1.09,4.48,1.88c1.54,1.22,2.31,2.98,2.31,5.28c0,2.36-0.91,4.33-2.74,5.89c-1.83,1.56-4.41,2.34-7.74,2.34
		c-3.41,0-6.09-0.77-8.04-2.31c-1.95-1.54-2.93-3.65-2.93-6.35H68.52z"/>
	<path class="st0" d="M98.93,26.66h-5.37V0.79h5.37V26.66z"/>
	<path class="st0" d="M109.38,0.79h5.49v15.89c0,1.78,0.21,3.08,0.63,3.89c0.65,1.45,2.08,2.17,4.27,2.17c2.18,0,3.6-0.72,4.25-2.17
		c0.42-0.82,0.63-2.12,0.63-3.89V0.79h5.49v15.9c0,2.75-0.43,4.89-1.28,6.42c-1.59,2.81-4.62,4.21-9.1,4.21
		c-4.48,0-7.51-1.4-9.11-4.21c-0.85-1.53-1.28-3.67-1.28-6.42V0.79z"/>
	<path class="st0" d="M140.82,0.79h5.32v10.66l10-10.66h6.99l-10.62,10.64l11.16,15.23h-6.95l-7.97-11.29l-2.6,2.64v8.65h-5.32V0.79
		z"/>
	<path class="st0" d="M192.01,24.37c-1.95,2.01-4.78,3.02-8.48,3.02c-3.7,0-6.52-1.01-8.48-3.02c-2.62-2.47-3.93-6.03-3.93-10.67
		c0-4.74,1.31-8.3,3.93-10.67c1.95-2.01,4.78-3.02,8.48-3.02c3.7,0,6.52,1.01,8.48,3.02c2.61,2.38,3.91,5.93,3.91,10.67
		C195.93,18.34,194.62,21.9,192.01,24.37z M188.63,20.43c1.26-1.58,1.89-3.83,1.89-6.74c0-2.9-0.63-5.15-1.89-6.73
		c-1.26-1.59-2.96-2.38-5.1-2.38c-2.14,0-3.85,0.79-5.13,2.37c-1.28,1.58-1.91,3.83-1.91,6.74c0,2.91,0.64,5.16,1.91,6.74
		c1.28,1.58,2.98,2.37,5.13,2.37C185.68,22.8,187.37,22.01,188.63,20.43z"/>
</g>
</svg>
